<svg width="222" height="221" viewBox="0 0 222 221" fill="none" xmlns="http://www.w3.org/2000/svg">
<g clip-path="url(#clip0_1_446)">
<path d="M163.218 4.14623L33.7182 20.0468C15.1414 22.3277 1.93101 39.2362 4.21195 57.813L20.1125 187.313C22.3934 205.89 39.302 219.1 57.8788 216.819L187.378 200.919C205.955 198.638 219.166 181.729 216.885 163.152L200.984 33.6525C198.703 15.0757 181.795 1.86529 163.218 4.14623Z" fill="#333333"/>
<path fill-rule="evenodd" clip-rule="evenodd" d="M172.75 118.437C173.526 117.444 172.986 115.982 171.751 115.733L101.594 101.564C100.226 101.287 99.1288 102.691 99.7278 103.952L130.449 168.597C130.989 169.735 132.539 169.906 133.314 168.913L148.186 149.877C148.762 149.14 149.827 149.009 150.565 149.585L174.14 168.004C174.877 168.58 175.942 168.45 176.518 167.712L182.038 160.648C182.614 159.91 182.483 158.846 181.745 158.269L158.17 139.85C157.433 139.274 157.302 138.209 157.878 137.472L172.75 118.437Z" fill="white"/>
<path d="M63.5798 77.7711L64.2045 82.859C64.9854 89.2189 65.3786 94.0419 65.3841 97.3278C65.3895 100.614 64.5993 103.743 63.0139 106.716C61.4674 109.684 58.6535 112.377 54.5716 114.795C59.8718 116.14 63.7263 118.679 66.1354 122.413C68.5397 126.109 70.1725 131.464 71.0339 138.48L72.3898 149.523C72.7542 152.491 73.2469 154.719 73.8676 156.208C74.5275 157.692 75.6301 158.73 77.1758 159.323C78.7655 159.95 81.168 160.065 84.3836 159.671L86.6778 159.389L87.8279 168.755L82.6514 169.391C76.22 170.181 71.294 168.966 67.8735 165.747C64.4922 162.524 62.2668 156.556 61.1972 147.845L60.1394 139.23C59.297 132.369 57.728 127.534 55.4327 124.725C53.1763 121.911 49.4998 120.661 44.4033 120.973L43.2106 111.26C47.2214 110.533 50.0568 109.148 51.7167 107.105C53.3765 105.062 54.2887 102.603 54.4529 99.7264C54.6566 96.8451 54.4862 93.1883 53.9419 88.7555L53.2462 83.0895C52.4322 76.4596 52.3148 71.2899 52.8944 67.5799C53.5131 63.8653 55.2084 60.977 57.9805 58.915C60.7528 56.8531 64.9819 55.473 70.6683 54.7748L73.7858 54.3921L74.9288 63.7007L73.6346 63.8596C70.4974 64.2448 68.1408 64.8276 66.5647 65.6081C64.9839 66.3498 63.9642 67.6098 63.5058 69.3876C63.0867 71.1606 63.1113 73.9551 63.5798 77.7711Z" fill="#35BA67"/>
<path d="M148.833 72.468L148.208 67.3801C147.739 63.5641 147.087 60.8466 146.252 59.2277C145.377 57.6136 144.083 56.6378 142.369 56.3005C140.651 55.9245 138.224 55.9291 135.086 56.3143L133.792 56.4732L132.649 47.1646L135.767 46.7818C141.453 46.0836 145.891 46.3995 149.079 47.7295C152.268 49.0596 154.612 51.452 156.111 54.9066C157.57 58.3661 158.707 63.4107 159.521 70.0406L160.217 75.7066C160.761 80.1394 161.481 83.7288 162.375 86.4752C163.231 89.2265 164.711 91.3923 166.815 92.9728C168.92 94.5534 172.006 95.2112 176.074 94.9465L177.267 104.66L165.906 101.125C161.36 99.766 157.978 97.8337 155.76 95.328C153.502 92.8273 151.978 89.9821 151.189 86.7924C150.399 83.6027 149.614 78.8279 148.833 72.468Z" fill="#35BA67"/>
</g>
<defs>
<clipPath id="clip0_1_446">
<rect width="198.25" height="198.25" fill="white" transform="translate(0.0819397 24.1768) rotate(-6.99998)"/>
</clipPath>
</defs>
</svg>
