<svg width="31" height="31" viewBox="0 0 31 31" fill="none" xmlns="http://www.w3.org/2000/svg">
<g clip-path="url(#clip0_1_520)">
<path d="M25.0618 0.5H5.31821C2.48598 0.5 0.190002 2.79598 0.190002 5.62821V25.3718C0.190002 28.204 2.48598 30.5 5.31821 30.5H25.0618C27.894 30.5 30.19 28.204 30.19 25.3718V5.62821C30.19 2.79598 27.894 0.5 25.0618 0.5Z" fill="#333333"/>
<path fill-rule="evenodd" clip-rule="evenodd" d="M24.3859 17.8418C24.5207 17.707 24.4664 17.4775 24.2856 17.4172L14.0096 13.9953C13.8092 13.9285 13.6185 14.1192 13.6853 14.3196L17.1072 24.5956C17.1675 24.7764 17.397 24.8307 17.5318 24.6959L20.1166 22.1111C20.2167 22.011 20.3791 22.011 20.4792 22.1111L23.6804 25.3123C23.7806 25.4124 23.9429 25.4124 24.043 25.3123L25.0023 24.3531C25.1024 24.2529 25.1024 24.0906 25.0023 23.9904L21.8011 20.7892C21.701 20.6891 21.701 20.5267 21.8011 20.4266L24.3859 17.8418Z" fill="white"/>
<path d="M8.73874 9.72067V10.4964C8.73874 11.466 8.70884 12.1976 8.64908 12.6913C8.58928 13.1849 8.4129 13.6404 8.11995 14.0576C7.83295 14.4748 7.36064 14.8274 6.70295 15.1154C7.47423 15.4151 8.00633 15.8676 8.29931 16.4729C8.59225 17.0723 8.73874 17.9068 8.73874 18.9763V20.66C8.73874 21.1125 8.77164 21.4563 8.83741 21.6913C8.90915 21.9264 9.05561 22.1027 9.27684 22.2202C9.50405 22.3436 9.86277 22.4053 10.353 22.4053H10.7028V23.8333H9.91359C8.93305 23.8333 8.21559 23.5601 7.7612 23.0135C7.31279 22.467 7.08859 21.5297 7.08859 20.2016V18.8882C7.08859 17.8421 6.9421 17.087 6.64915 16.6227C6.36215 16.1585 5.83302 15.9028 5.06177 15.8558V14.3749C5.67759 14.3397 6.129 14.184 6.41597 13.9077C6.70295 13.6315 6.88531 13.279 6.96302 12.85C7.04674 12.421 7.08859 11.8686 7.08859 11.1927V10.3289C7.08859 9.3181 7.16631 8.53946 7.32177 7.99293C7.4832 7.44641 7.7911 7.04387 8.24549 6.78528C8.6999 6.52672 9.36054 6.39744 10.2275 6.39744H10.7028V7.81664H10.5055C10.0272 7.81664 9.66249 7.86072 9.41136 7.94887C9.16025 8.03113 8.98387 8.20157 8.88223 8.46013C8.78659 8.71869 8.73874 9.13887 8.73874 9.72067Z" fill="#35BA67"/>
<path d="M21.6412 10.4964V9.72067C21.6412 9.13887 21.5934 8.71869 21.4977 8.46013C21.3961 8.20157 21.2197 8.03113 20.9686 7.94887C20.7175 7.86072 20.3528 7.81664 19.8745 7.81664H19.6772V6.39744H20.1525C21.0194 6.39744 21.6801 6.52672 22.1345 6.78528C22.5889 7.04387 22.8968 7.44641 23.0582 7.99293C23.2137 8.53946 23.2914 9.3181 23.2914 10.3289V11.1927C23.2914 11.8686 23.3332 12.421 23.417 12.85C23.4947 13.279 23.677 13.6315 23.964 13.9077C24.251 14.184 24.7024 14.3397 25.3182 14.3749V15.8558L23.677 15.1154C23.0193 14.8274 22.547 14.4748 22.26 14.0576C21.9671 13.6404 21.7907 13.1849 21.7309 12.6913C21.6711 12.1976 21.6412 11.466 21.6412 10.4964Z" fill="#35BA67"/>
</g>
<defs>
<clipPath id="clip0_1_520">
<rect width="30" height="30" fill="white" transform="translate(0.190002 0.5)"/>
</clipPath>
</defs>
</svg>
